STARTFONT 2.1
FONT -Adobe-Utopia-Regular-R-Normal--33-240-100-100-P-180-ISO8859-2
SIZE 24 100 100
FONTBOUNDINGBOX 43 39 -5 -8
STARTPROPERTIES 29
FOUNDRY "Adobe"
FAMILY_NAME "Utopia"
WEIGHT_NAME "Regular"
SLANT "R"
SETWIDTH_NAME "Normal"
ADD_STYLE_NAME ""
PIXEL_SIZE 33
POINT_SIZE 240
RESOLUTION_X 100
RESOLUTION_Y 100
SPACING "P"
AVERAGE_WIDTH 180
CHARSET_REGISTRY "ISO8859"
CHARSET_ENCODING "2"
CAP_HEIGHT 23
X_HEIGHT 16
RELATIVE_SETWIDTH 50
RELATIVE_WEIGHT 50
WEIGHT 136
FACE_NAME "Utopia Regular"
COPYRIGHT "Copyright (c) 1989, 1991 Adobe Systems Incorporated.  All Rights Reserved., Copyright 1996 Cub Soft"
NOTICE "Utopia is a registered trademark of Adobe Systems Incorporated."
DESTINATION 0
FONT_ASCENT 31
FONT_DESCENT 8
DEFAULT_CHAR 32
_ADOBE_PSFONT "Utopia-Regular"
_ADOBE_XFONT "-Adobe-Utopia-Regular-R-Normal--33-240-100-100-P-180-ISO8859-2"
_DEC_DEVICE_FONTNAMES "PS=Utopia-Regular"
ENDPROPERTIES
CHARS 191
STARTCHAR space
ENCODING 32
SWIDTH 225 0
DWIDTH 8 0
BBX 0 0 0 0
BITMAP
ENDCHAR
STARTCHAR exclam
ENCODING 33
SWIDTH 242 0
DWIDTH 8 0
BBX 4 24 2 0
BITMAP
60
f0
f0
f0
f0
60
60
60
60
60
60
60
60
60
60
60
40
00
00
00
60
f0
f0
60
ENDCHAR
STARTCHAR quotedbl
ENCODING 34
SWIDTH 458 0
DWIDTH 15 0
BBX 9 9 3 16
BITMAP
e380
e380
e380
e380
6300
6300
4100
4100
4100
ENDCHAR
STARTCHAR numbersign
ENCODING 35
SWIDTH 530 0
DWIDTH 18 0
BBX 17 22 0 0
BITMAP
018600
018600
010600
030400
030c00
030c00
020c00
3fff80
3fff80
061800
041800
0c3000
fffe00
fffe00
182000
186000
186000
186000
306000
30c000
30c000
30c000
ENDCHAR
STARTCHAR dollar
ENCODING 36
SWIDTH 530 0
DWIDTH 18 0
BBX 14 28 2 -3
BITMAP
0200
0200
0f80
3af0
7278
6238
e210
e200
e200
f200
7a00
7e00
1fc0
0fe0
03f0
02f8
023c
021c
021c
021c
c218
e218
f238
7a70
1f80
0200
0200
0200
ENDCHAR
STARTCHAR percent
ENCODING 37
SWIDTH 838 0
DWIDTH 28 0
BBX 24 24 2 -1
BITMAP
1e0030
610060
61ffe0
c0c0c0
c0c180
c0c180
c0c300
c0c300
c0c600
618c00
638c00
1e1878
001986
003186
006303
006303
00c303
008303
018303
030303
030186
06018e
0c0078
040000
ENDCHAR
STARTCHAR ampersand
ENCODING 38
SWIDTH 706 0
DWIDTH 24 0
BBX 21 23 2 0
BITMAP
078000
0c7000
183000
383800
383800
383800
387000
1c6000
1fc020
0f0070
0f0070
1b8070
31c060
70e060
e070c0
e078c0
e03d80
e01f00
f00f00
700f80
7c1be0
1ff0f0
078038
ENDCHAR
STARTCHAR apostrophe
ENCODING 39
SWIDTH 278 0
DWIDTH 9 0
BBX 5 9 2 16
BITMAP
70
70
78
38
30
30
20
40
80
ENDCHAR
STARTCHAR parenleft
ENCODING 40
SWIDTH 350 0
DWIDTH 12 0
BBX 7 28 4 -4
BITMAP
06
1c
18
30
20
60
60
60
c0
c0
c0
c0
c0
c0
c0
c0
c0
c0
c0
c0
60
60
60
30
30
18
1c
06
ENDCHAR
STARTCHAR parenright
ENCODING 41
SWIDTH 350 0
DWIDTH 12 0
BBX 7 28 1 -4
BITMAP
c0
70
30
18
08
0c
0c
0c
04
06
06
06
06
06
06
06
06
06
06
04
0c
0c
0c
18
18
30
70
c0
ENDCHAR
STARTCHAR asterisk
ENCODING 42
SWIDTH 412 0
DWIDTH 14 0
BBX 10 12 2 12
BITMAP
0c00
0c00
4c80
edc0
7b80
0c00
1e00
7b80
edc0
4c80
0c00
0c00
ENDCHAR
STARTCHAR plus
ENCODING 43
SWIDTH 570 0
DWIDTH 19 0
BBX 16 17 2 0
BITMAP
0180
0180
0180
0180
0180
0180
0180
0180
ffff
ffff
0180
0180
0180
0180
0180
0180
0180
ENDCHAR
STARTCHAR comma
ENCODING 44
SWIDTH 265 0
DWIDTH 9 0
BBX 5 9 2 -5
BITMAP
30
70
78
38
38
30
20
40
80
ENDCHAR
STARTCHAR minus
ENCODING 45
SWIDTH 570 0
DWIDTH 19 0
BBX 16 2 2 7
BITMAP
ffff
ffff
ENDCHAR
STARTCHAR period
ENCODING 46
SWIDTH 265 0
DWIDTH 9 0
BBX 4 4 2 0
BITMAP
60
f0
f0
60
ENDCHAR
STARTCHAR slash
ENCODING 47
SWIDTH 460 0
DWIDTH 15 0
BBX 9 24 3 0
BITMAP
0180
0380
0300
0300
0300
0600
0600
0600
0e00
0c00
0c00
0c00
1800
1800
1800
3800
3000
3000
3000
6000
6000
6000
e000
c000
ENDCHAR
STARTCHAR zero
ENCODING 48
SWIDTH 530 0
DWIDTH 18 0
BBX 14 23 2 0
BITMAP
0780
1ce0
3870
7038
7038
7038
7038
e01c
e01c
e01c
e01c
e01c
e01c
e01c
e01c
e01c
7038
7038
7038
7038
3870
1ce0
0780
ENDCHAR
STARTCHAR one
ENCODING 49
SWIDTH 530 0
DWIDTH 18 0
BBX 11 23 4 0
BITMAP
0600
fe00
3e00
0e00
0e00
0e00
0e00
0e00
0e00
0e00
0e00
0e00
0e00
0e00
0e00
0e00
0e00
0e00
0e00
0e00
0e00
0e00
ffe0
ENDCHAR
STARTCHAR two
ENCODING 50
SWIDTH 530 0
DWIDTH 18 0
BBX 16 23 1 0
BITMAP
07e0
1c38
383c
781c
701e
301e
001e
001e
001c
003c
0038
0070
00e0
0180
0300
0600
0c00
1800
3001
3002
7ffe
7ffe
fffe
ENDCHAR
STARTCHAR three
ENCODING 51
SWIDTH 530 0
DWIDTH 18 0
BBX 15 23 1 0
BITMAP
0fe0
3c70
3038
701c
601c
201c
001c
001c
0038
0060
1f80
0070
0038
003c
001c
001e
001e
401e
e01c
e01c
f038
7870
0fc0
ENDCHAR
STARTCHAR four
ENCODING 52
SWIDTH 530 0
DWIDTH 18 0
BBX 15 23 1 0
BITMAP
0070
0070
00f0
01f0
0170
0370
0270
0670
0c70
0870
1870
1070
3070
6070
4070
fffe
fffe
0070
0070
0070
0070
0070
03fc
ENDCHAR
STARTCHAR five
ENCODING 53
SWIDTH 530 0
DWIDTH 18 0
BBX 15 23 1 0
BITMAP
3ffc
3ffc
3ffc
3000
3000
3000
3000
3000
2000
23e0
3c78
301c
001c
000e
000e
000e
000e
000e
600e
f01c
7018
3c30
0fc0
ENDCHAR
STARTCHAR six
ENCODING 54
SWIDTH 530 0
DWIDTH 18 0
BBX 14 23 2 0
BITMAP
03e0
0c78
383c
301c
7008
7000
6000
6000
e000
e1c0
e7f0
e878
f038
f03c
e01c
e01c
e01c
601c
701c
7038
3038
1870
07c0
ENDCHAR
STARTCHAR seven
ENCODING 55
SWIDTH 530 0
DWIDTH 18 0
BBX 15 23 2 0
BITMAP
7ffe
7ffc
fffc
c008
8018
0018
0030
0020
0060
00c0
0080
0180
0180
0300
0300
0600
0600
0600
0600
0e00
0e00
0e00
0e00
ENDCHAR
STARTCHAR eight
ENCODING 56
SWIDTH 530 0
DWIDTH 18 0
BBX 14 23 2 0
BITMAP
0f80
38e0
7070
f078
e038
e038
e038
e038
7070
7070
38e0
1fc0
3870
7038
7038
601c
e01c
e01c
e01c
7038
7038
3870
0fc0
ENDCHAR
STARTCHAR nine
ENCODING 57
SWIDTH 530 0
DWIDTH 18 0
BBX 15 23 1 0
BITMAP
07e0
1870
3038
701c
e01c
e01c
e00e
e00e
e00e
f00e
701e
782e
3fce
0f0e
000e
000e
001c
001c
301c
7038
7838
3cf0
0fc0
ENDCHAR
STARTCHAR colon
ENCODING 58
SWIDTH 265 0
DWIDTH 9 0
BBX 4 17 2 0
BITMAP
60
f0
f0
f0
00
00
00
00
00
00
00
00
00
f0
f0
f0
60
ENDCHAR
STARTCHAR semicolon
ENCODING 59
SWIDTH 265 0
DWIDTH 9 0
BBX 5 21 2 -4
BITMAP
30
78
78
70
00
00
00
00
00
00
00
20
70
78
38
38
30
30
60
40
80
ENDCHAR
STARTCHAR less
ENCODING 60
SWIDTH 570 0
DWIDTH 19 0
BBX 16 17 2 0
BITMAP
0001
0007
001f
00fc
03e0
0f80
3e00
f000
c000
f000
7c00
0f80
03e0
00f8
001f
0007
0001
ENDCHAR
STARTCHAR equal
ENCODING 61
SWIDTH 570 0
DWIDTH 19 0
BBX 16 9 2 4
BITMAP
ffff
ffff
0000
0000
0000
0000
0000
ffff
ffff
ENDCHAR
STARTCHAR greater
ENCODING 62
SWIDTH 570 0
DWIDTH 19 0
BBX 16 17 1 0
BITMAP
8000
e000
f800
3f00
07c0
01f0
007c
000f
0003
000f
003e
01f0
07c0
1f00
f800
e000
8000
ENDCHAR
STARTCHAR question
ENCODING 63
SWIDTH 389 0
DWIDTH 13 0
BBX 11 24 1 0
BITMAP
1e00
79c0
70e0
e0e0
60e0
00e0
01c0
01c0
0380
0700
0e00
1c00
1800
3800
3800
3c00
0f80
0000
0000
0000
0e00
1e00
0e00
0c00
ENDCHAR
STARTCHAR at
ENCODING 64
SWIDTH 793 0
DWIDTH 26 0
BBX 24 24 1 0
BITMAP
001f00
00f0e0
038030
070008
0e000c
1c0006
3807c2
3838c2
7070c3
70e1c3
60c183
61c383
e1c382
e38706
e38b04
e39b0c
61e310
70c1e0
700000
380000
1c0000
0e0000
03c1c0
007e00
ENDCHAR
STARTCHAR A
ENCODING 65
SWIDTH 635 0
DWIDTH 21 0
BBX 23 24 -1 0
BITMAP
003800
003800
003c00
005c00
005c00
004e00
00ce00
008e00
008f00
018700
010700
010780
030380
030380
07ffc0
0601c0
0401c0
0c01e0
0c00e0
0c00e0
1800f0
180070
380078
ff03fe
ENDCHAR
STARTCHAR B
ENCODING 66
SWIDTH 646 0
DWIDTH 22 0
BBX 19 24 1 0
BITMAP
fff000
1c1f00
1c0780
1c0380
1c03c0
1c03c0
1c03c0
1c03c0
1c0380
1c0700
1c1e00
1ff800
1c0f00
1c0780
1c03c0
1c01c0
1c01e0
1c01e0
1c01e0
1c01c0
1c01c0
1c0380
1e0f80
fffc00
ENDCHAR
STARTCHAR C
ENCODING 67
SWIDTH 684 0
DWIDTH 23 0
BBX 20 24 1 0
BITMAP
007f00
03c1f0
0f0070
1e0030
3c0030
380010
780000
780000
700000
700000
f00000
f00000
f00000
f00000
f00000
700000
780000
780010
380010
3c0010
1e0030
0f0070
03c1f0
00ff80
ENDCHAR
STARTCHAR D
ENCODING 68
SWIDTH 779 0
DWIDTH 26 0
BBX 24 24 1 0
BITMAP
ffff00
1c07e0
1c00f0
1c0078
1c003c
1c001c
1c001e
1c000e
1c000e
1c000f
1c000f
1c000f
1c000f
1c000f
1c000f
1c000e
1c001e
1c001e
1c001c
1c003c
1c0078
1c00f0
1e03c0
ffff00
ENDCHAR
STARTCHAR E
ENCODING 69
SWIDTH 606 0
DWIDTH 20 0
BBX 18 24 1 0
BITMAP
ffff80
1c0380
1c0180
1c0080
1c0080
1c0000
1c0000
1c0000
1c0200
1c0200
1c0600
1ffe00
1c0600
1c0200
1c0200
1c0000
1c0000
1c0000
1c0040
1c00c0
1c00c0
1c01c0
1e0380
ffff80
ENDCHAR
STARTCHAR F
ENCODING 70
SWIDTH 580 0
DWIDTH 19 0
BBX 17 24 1 0
BITMAP
ffff80
1c0380
1c0180
1c0080
1c0080
1c0000
1c0000
1c0000
1c0000
1c0200
1c0200
1c0600
1ffe00
1c0600
1c0200
1c0200
1c0000
1c0000
1c0000
1c0000
1c0000
1c0000
1c0000
ffc000
ENDCHAR
STARTCHAR G
ENCODING 71
SWIDTH 734 0
DWIDTH 24 0
BBX 23 24 1 0
BITMAP
003f80
03e0f8
0f0038
1e0018
3c0018
380008
780000
780000
700000
700000
f00000
f00000
f00000
f003fe
700038
700038
780038
780038
780038
3c0038
1e0038
0f0038
07c078
00ff80
ENDCHAR
STARTCHAR H
ENCODING 72
SWIDTH 798 0
DWIDTH 27 0
BBX 24 24 1 0
BITMAP
ff81ff
1c0038
1c0038
1c0038
1c0038
1c0038
1c0038
1c0038
1c0038
1c0038
1c0038
1ffff8
1c0038
1c0038
1c0038
1c0038
1c0038
1c0038
1c0038
1c0038
1c0038
1c0038
1c0038
ff81ff
ENDCHAR
STARTCHAR I
ENCODING 73
SWIDTH 349 0
DWIDTH 12 0
BBX 9 24 1 0
BITMAP
ff80
1c00
1c00
1c00
1c00
1c00
1c00
1c00
1c00
1c00
1c00
1c00
1c00
1c00
1c00
1c00
1c00
1c00
1c00
1c00
1c00
1c00
1c00
ff80
ENDCHAR
STARTCHAR J
ENCODING 74
SWIDTH 350 0
DWIDTH 12 0
BBX 10 27 1 -3
BITMAP
7fc0
0e00
0e00
0e00
0e00
0e00
0e00
0e00
0e00
0e00
0e00
0e00
0e00
0e00
0e00
0e00
0e00
0e00
0e00
0e00
0e00
0e00
0c00
1c00
3c00
7000
8000
ENDCHAR
STARTCHAR K
ENCODING 75
SWIDTH 658 0
DWIDTH 22 0
BBX 21 24 1 0
BITMAP
ff87f8
1c01c0
1c0380
1c0700
1c0e00
1c0c00
1c1800
1c3000
1c6000
1c8000
1d8000
1fc000
1de000
1df000
1cf800
1c7800
1c3c00
1c1e00
1c1f00
1c0f80
1c0780
1c03c0
1c01f0
ff8038
ENDCHAR
STARTCHAR L
ENCODING 76
SWIDTH 568 0
DWIDTH 19 0
BBX 17 24 1 0
BITMAP
ff8000
1c0000
1c0000
1c0000
1c0000
1c0000
1c0000
1c0000
1c0000
1c0000
1c0000
1c0000
1c0000
1c0000
1c0000
1c0000
1c0000
1c0000
1c0080
1c0080
1c0080
1c0180
1e0780
ffff80
ENDCHAR
STARTCHAR M
ENCODING 77
SWIDTH 944 0
DWIDTH 31 0
BBX 29 24 1 0
BITMAP
fe0003f8
1f0003c0
1f0003c0
1f8007c0
1f8005c0
1b800dc0
1bc00dc0
19c009c0
19e019c0
18e011c0
18e031c0
18f021c0
187061c0
187861c0
183841c0
183cc1c0
183c81c0
181d81c0
181f01c0
180f01c0
180f01c0
180601c0
3c0601c0
ff040ff8
ENDCHAR
STARTCHAR N
ENCODING 78
SWIDTH 780 0
DWIDTH 26 0
BBX 24 24 1 0
BITMAP
fe00ff
1f003c
1f0018
1f8018
1bc018
1bc018
19e018
18e018
18f018
187818
183818
183c18
181e18
180e18
180f18
180798
180398
1803d8
1801f8
1800f8
1800f8
180078
3c0038
ff0038
ENDCHAR
STARTCHAR O
ENCODING 79
SWIDTH 762 0
DWIDTH 25 0
BBX 23 24 1 0
BITMAP
00fe00
0783c0
0e00e0
1c0070
380038
380038
78003c
70001c
70001c
f0001e
f0001e
f0001e
f0001e
f0001e
f0001e
70001c
70001c
78003c
380038
380038
1c0070
0e00e0
0783c0
00fe00
ENDCHAR
STARTCHAR P
ENCODING 80
SWIDTH 600 0
DWIDTH 20 0
BBX 18 24 1 0
BITMAP
fff800
1c1f00
1c0700
1c0780
1c0380
1c03c0
1c03c0
1c03c0
1c03c0
1c0380
1c0780
1c0700
1c1e00
1ff800
1c0000
1c0000
1c0000
1c0000
1c0000
1c0000
1c0000
1c0000
1c0000
ff8000
ENDCHAR
STARTCHAR Q
ENCODING 81
SWIDTH 762 0
DWIDTH 25 0
BBX 23 30 1 -6
BITMAP
00fe00
0783c0
0e00e0
1c0070
380038
380038
78003c
70001c
70001c
f0001e
f0001e
f0001e
f0001e
f0001e
f0001e
70001c
70001c
78003c
380038
380038
1c0070
0e00e0
0783c0
00ff00
001e00
001f00
000f00
0007c0
0003e0
0000fc
ENDCHAR
STARTCHAR R
ENCODING 82
SWIDTH 644 0
DWIDTH 21 0
BBX 20 24 1 0
BITMAP
fffc00
1c1f00
1c0780
1c0380
1c03c0
1c03c0
1c03c0
1c03c0
1c0380
1c0780
1c0700
1c1e00
1ff000
1c1e00
1c0f00
1c0700
1c0700
1c0780
1c0780
1c0780
1c0380
1c03c0
1c01e0
ff80f0
ENDCHAR
STARTCHAR S
ENCODING 83
SWIDTH 541 0
DWIDTH 18 0
BBX 15 24 2 0
BITMAP
0fe0
3838
7018
6018
e018
e008
e000
f000
7800
7e00
3fc0
0ff0
03f8
00fc
007c
001e
000e
800e
c00e
c00e
e00c
f018
7830
1fc0
ENDCHAR
STARTCHAR T
ENCODING 84
SWIDTH 621 0
DWIDTH 21 0
BBX 19 24 1 0
BITMAP
ffffe0
e0e0e0
c0e060
80e020
80e020
80e020
00e000
00e000
00e000
00e000
00e000
00e000
00e000
00e000
00e000
00e000
00e000
00e000
00e000
00e000
00e000
00e000
00e000
0ffe00
ENDCHAR
STARTCHAR U
ENCODING 85
SWIDTH 791 0
DWIDTH 26 0
BBX 24 24 1 0
BITMAP
ff81ff
1c0038
1c0038
1c0038
1c0038
1c0038
1c0038
1c0038
1c0038
1c0038
1c0038
1c0038
1c0038
1c0038
1c0038
1c0038
1c0038
1c0038
0c0030
0e0070
0e0070
0700e0
0381c0
007e00
ENDCHAR
STARTCHAR V
ENCODING 86
SWIDTH 634 0
DWIDTH 21 0
BBX 23 24 0 0
BITMAP
ff80fe
3c0038
1c0030
1e0030
1e0060
0e0060
0f0060
0700c0
0700c0
0780c0
038080
038180
03c100
01c300
01c300
01e200
00e600
00e600
00f400
007c00
007c00
007800
003800
003800
ENDCHAR
STARTCHAR W
ENCODING 87
SWIDTH 940 0
DWIDTH 31 0
BBX 33 24 0 0
BITMAP
ff00007f80
3c01c00e00
1c01c00c00
1c01e00c00
1c03e00800
1e03e01800
0e03601800
0e02701800
0e06701000
0706303000
0706383000
070c383000
070c382000
038c1c2000
03881c6000
03981c4000
03980e4000
01d80e4000
01d00ec000
01f00f8000
01f0078000
00f0078000
00e0078000
00e0030000
ENDCHAR
STARTCHAR X
ENCODING 88
SWIDTH 624 0
DWIDTH 21 0
BBX 22 24 0 0
BITMAP
ff03f8
3c00e0
1c00c0
0e0180
0f0300
070600
078400
03cc00
01d800
01f000
00f000
00f000
00f800
00fc00
01fc00
039e00
030e00
070f00
060780
0e0780
1c03c0
1801e0
3801e0
ff07fc
ENDCHAR
STARTCHAR Y
ENCODING 89
SWIDTH 588 0
DWIDTH 20 0
BBX 21 24 0 0
BITMAP
ff83f8
3c00e0
1c00c0
1e0180
0e0180
0f0300
070300
078200
038600
03c400
01cc00
01e800
00f800
00f000
007000
007000
007000
007000
007000
007000
007000
007000
007000
07fe00
ENDCHAR
STARTCHAR Z
ENCODING 90
SWIDTH 610 0
DWIDTH 20 0
BBX 19 24 0 0
BITMAP
3fffe0
3803e0
3003c0
200780
200f80
200f00
001e00
003e00
003c00
007800
007800
00f000
01e000
01e000
03c000
078000
078000
0f0000
1e0020
1e0020
3c0020
780060
7801e0
ffffe0
ENDCHAR
STARTCHAR bracketleft
ENCODING 91
SWIDTH 330 0
DWIDTH 11 0
BBX 5 28 4 -4
BITMAP
f8
c0
c0
c0
c0
c0
c0
c0
c0
c0
c0
c0
c0
c0
c0
c0
c0
c0
c0
c0
c0
c0
c0
c0
c0
c0
c0
f8
ENDCHAR
STARTCHAR backslash
ENCODING 92
SWIDTH 460 0
DWIDTH 15 0
BBX 9 24 3 0
BITMAP
c000
e000
6000
6000
6000
3000
3000
3000
3800
1800
1800
1800
0c00
0c00
0c00
0e00
0600
0600
0600
0300
0300
0300
0380
0180
ENDCHAR
STARTCHAR bracketright
ENCODING 93
SWIDTH 330 0
DWIDTH 11 0
BBX 5 28 2 -4
BITMAP
f8
18
18
18
18
18
18
18
18
18
18
18
18
18
18
18
18
18
18
18
18
18
18
18
18
18
18
f8
ENDCHAR
STARTCHAR asciicircum
ENCODING 94
SWIDTH 570 0
DWIDTH 19 0
BBX 15 14 2 9
BITMAP
0380
0380
06c0
06c0
0c60
0c60
0c70
1830
1830
3018
3018
701c
600c
e00e
ENDCHAR
STARTCHAR underscore
ENCODING 95
SWIDTH 500 0
DWIDTH 17 0
BBX 17 2 0 -4
BITMAP
ffff80
ffff80
ENDCHAR
STARTCHAR grave
ENCODING 96
SWIDTH 400 0
DWIDTH 13 0
BBX 7 6 2 18
BITMAP
40
e0
70
38
0c
02
ENDCHAR
STARTCHAR a
ENCODING 97
SWIDTH 523 0
DWIDTH 17 0
BBX 15 17 2 0
BITMAP
07c0
38e0
f0f0
e070
6070
0070
01f0
0770
3c70
7070
e070
e070
e070
e070
70f0
7f7e
3c38
ENDCHAR
STARTCHAR b
ENCODING 98
SWIDTH 598 0
DWIDTH 20 0
BBX 17 25 1 0
BITMAP
180000
f80000
380000
380000
380000
380000
380000
380000
387000
39fe00
3e1e00
3c0700
380700
380300
380380
380380
380380
380380
380380
380300
380700
380700
3c0e00
3e1c00
27f000
ENDCHAR
STARTCHAR c
ENCODING 99
SWIDTH 496 0
DWIDTH 17 0
BBX 14 17 2 0
BITMAP
07c0
1870
3038
7038
6010
e000
e000
e000
e000
e000
e000
f000
700c
7818
3c30
1fe0
0700
ENDCHAR
STARTCHAR d
ENCODING 100
SWIDTH 598 0
DWIDTH 20 0
BBX 17 25 2 0
BITMAP
000600
003e00
000e00
000e00
000e00
000e00
000e00
000e00
07ce00
1c3e00
381e00
700e00
700e00
e00e00
e00e00
e00e00
e00e00
e00e00
e00e00
e00e00
700e00
781e00
3c3e00
1fee00
070f80
ENDCHAR
STARTCHAR e
ENCODING 101
SWIDTH 514 0
DWIDTH 17 0
BBX 14 17 2 0
BITMAP
0780
1c70
3038
7018
601c
e01c
e01c
fffc
e000
e000
e000
e000
700c
7808
3c38
1ff0
07c0
ENDCHAR
STARTCHAR f
ENCODING 102
SWIDTH 319 0
DWIDTH 11 0
BBX 12 25 1 0
BITMAP
03c0
0470
0c70
0c20
0c00
1c00
1c00
1c00
ffc0
1c00
1c00
1c00
1c00
1c00
1c00
1c00
1c00
1c00
1c00
1c00
1c00
1c00
1c00
1c00
7f80
ENDCHAR
STARTCHAR g
ENCODING 103
SWIDTH 520 0
DWIDTH 17 0
BBX 16 25 1 -8
BITMAP
07c7
1c7f
3838
7018
701c
701c
701c
383c
3838
1c70
0fc0
1800
3000
7000
7ff0
3ffc
0ffe
381f
6007
e007
e007
e006
700e
3c3c
07e0
ENDCHAR
STARTCHAR h
ENCODING 104
SWIDTH 607 0
DWIDTH 20 0
BBX 18 25 1 0
BITMAP
180000
f80000
380000
380000
380000
380000
380000
380000
387800
39fe00
3e1e00
3c0f00
380700
380700
380700
380700
380700
380700
380700
380700
380700
380700
380700
380700
ff3fc0
ENDCHAR
STARTCHAR i
ENCODING 105
SWIDTH 291 0
DWIDTH 10 0
BBX 7 24 2 0
BITMAP
30
78
78
30
00
00
00
38
f8
38
38
38
38
38
38
38
38
38
38
38
38
38
38
fe
ENDCHAR
STARTCHAR j
ENCODING 106
SWIDTH 280 0
DWIDTH 9 0
BBX 8 32 -1 -8
BITMAP
06
0f
0f
06
00
00
00
07
1f
07
07
07
07
07
07
07
07
07
07
07
07
07
07
07
07
07
07
06
0e
1c
38
e0
ENDCHAR
STARTCHAR k
ENCODING 107
SWIDTH 524 0
DWIDTH 17 0
BBX 17 25 1 0
BITMAP
180000
f80000
380000
380000
380000
380000
380000
380000
381f00
383800
387000
38e000
38c000
398000
3b0000
3f0000
3f8000
3f8000
3bc000
39e000
38f000
387800
383c00
381f00
fe0780
ENDCHAR
STARTCHAR l
ENCODING 108
SWIDTH 279 0
DWIDTH 9 0
BBX 7 25 1 0
BITMAP
18
f8
38
38
38
38
38
38
38
38
38
38
38
38
38
38
38
38
38
38
38
38
38
38
fe
ENDCHAR
STARTCHAR m
ENCODING 109
SWIDTH 923 0
DWIDTH 31 0
BBX 29 17 2 0
BITMAP
38380700
f9fe3fc0
3e0fc3c0
3c0781e0
380700e0
380700e0
380700e0
380700e0
380700e0
380700e0
380700e0
380700e0
380700e0
380700e0
380700e0
380700e0
ff3fe7f8
ENDCHAR
STARTCHAR n
ENCODING 110
SWIDTH 619 0
DWIDTH 21 0
BBX 18 17 2 0
BITMAP
387800
f9fe00
3e1e00
3c0f00
380700
380700
380700
380700
380700
380700
380700
380700
380700
380700
380700
380700
fe3fc0
ENDCHAR
STARTCHAR o
ENCODING 111
SWIDTH 577 0
DWIDTH 19 0
BBX 15 17 2 0
BITMAP
07c0
1830
3018
701c
701c
e00e
e00e
e00e
e00e
e00e
e00e
e00e
701c
701c
3018
1830
07c0
ENDCHAR
STARTCHAR p
ENCODING 112
SWIDTH 608 0
DWIDTH 20 0
BBX 17 25 1 -8
BITMAP
387000
f9fe00
3e1e00
3c0700
380700
380380
380380
380380
380380
380380
380380
380300
380700
380700
3c0e00
3e1c00
3bf000
380000
380000
380000
380000
380000
380000
380000
ff0000
ENDCHAR
STARTCHAR q
ENCODING 113
SWIDTH 591 0
DWIDTH 20 0
BBX 17 25 2 -8
BITMAP
07e600
1c3e00
381e00
700e00
700e00
e00e00
e00e00
e00e00
e00e00
e00e00
e00e00
e00e00
700e00
781e00
3c3e00
1fee00
070e00
000e00
000e00
000e00
000e00
000e00
000e00
000e00
007f80
ENDCHAR
STARTCHAR r
ENCODING 114
SWIDTH 389 0
DWIDTH 13 0
BBX 11 17 2 0
BITMAP
38c0
f9e0
3fe0
3c40
3800
3800
3800
3800
3800
3800
3800
3800
3800
3800
3800
3800
ff00
ENDCHAR
STARTCHAR s
ENCODING 115
SWIDTH 436 0
DWIDTH 15 0
BBX 11 17 2 0
BITMAP
1f00
31c0
60c0
e040
e040
f000
7800
7e00
1f80
07c0
01e0
80e0
80e0
c0e0
c0c0
e180
3f00
ENDCHAR
STARTCHAR t
ENCODING 116
SWIDTH 344 0
DWIDTH 11 0
BBX 10 21 2 0
BITMAP
0800
1800
1800
3800
ff80
3800
3800
3800
3800
3800
3800
3800
3800
3800
3800
3800
3800
3800
3c00
1fc0
0e00
ENDCHAR
STARTCHAR u
ENCODING 117
SWIDTH 606 0
DWIDTH 20 0
BBX 18 17 1 0
BITMAP
380700
f81f00
380700
380700
380700
380700
380700
380700
380700
380700
380700
380700
380700
3c0f00
1e1f00
1fe700
0707c0
ENDCHAR
STARTCHAR v
ENCODING 118
SWIDTH 504 0
DWIDTH 17 0
BBX 18 17 0 0
BITMAP
ff1fc0
3c0300
1c0600
1c0600
1c0600
0e0400
0e0c00
0e0800
070800
071800
071000
039000
03b000
03a000
01e000
01e000
01c000
ENDCHAR
STARTCHAR w
ENCODING 119
SWIDTH 768 0
DWIDTH 26 0
BBX 27 17 0 0
BITMAP
fe000fe0
380e0180
380e0100
1c0f0300
1c1f0300
1c170200
1c138600
0e338600
0e23c400
0e21c400
0721cc00
0761e800
0740e800
0740e800
03c0f000
03807000
03807000
ENDCHAR
STARTCHAR x
ENCODING 120
SWIDTH 486 0
DWIDTH 16 0
BBX 17 17 0 0
BITMAP
fe3f00
3c0c00
1c1800
1e3000
0f3000
076000
07c000
03c000
01c000
03e000
06e000
067000
0c7800
0c3800
181c00
381e00
fc7f80
ENDCHAR
STARTCHAR y
ENCODING 121
SWIDTH 506 0
DWIDTH 17 0
BBX 17 25 0 -8
BITMAP
ff1f80
3c0600
3c0600
1c0400
1e0c00
0e0c00
0e0800
0f0800
071800
071000
039000
03b000
03a000
01e000
01e000
01e000
00c000
00c000
00c000
008000
008000
110000
390000
3e0000
1c0000
ENDCHAR
STARTCHAR z
ENCODING 122
SWIDTH 480 0
DWIDTH 16 0
BBX 14 17 1 0
BITMAP
7ffc
703c
6078
40f0
40f0
01e0
03c0
0380
0780
0f00
0e00
1e00
3c04
3804
780c
f03c
fffc
ENDCHAR
STARTCHAR braceleft
ENCODING 123
SWIDTH 340 0
DWIDTH 11 0
BBX 7 28 3 -4
BITMAP
0e
18
30
30
30
30
30
38
18
18
18
18
18
30
e0
20
10
18
18
18
18
38
30
30
30
30
18
0e
ENDCHAR
STARTCHAR bar
ENCODING 124
SWIDTH 228 0
DWIDTH 8 0
BBX 2 24 3 0
BITMAP
c0
c0
c0
c0
c0
c0
c0
c0
c0
c0
c0
c0
c0
c0
c0
c0
c0
c0
c0
c0
c0
c0
c0
c0
ENDCHAR
STARTCHAR braceright
ENCODING 125
SWIDTH 340 0
DWIDTH 11 0
BBX 8 28 1 -4
BITMAP
e0
30
18
18
18
18
18
18
18
10
10
18
18
0c
07
18
18
18
10
18
18
18
18
18
18
18
30
e0
ENDCHAR
STARTCHAR asciitilde
ENCODING 126
SWIDTH 570 0
DWIDTH 19 0
BBX 14 5 3 6
BITMAP
0808
3f0c
7ff8
c1f0
4000
ENDCHAR
STARTCHAR nobreakspace
ENCODING 160
SWIDTH 225 0
DWIDTH 8 0
BBX 0 0 0 0
BITMAP
ENDCHAR
STARTCHAR Aogonek
ENCODING 161
SWIDTH 635 0
DWIDTH 21 0
BBX 23 31 -1 -7
BITMAP
003800
003800
003c00
005c00
005c00
004e00
00ce00
008e00
008f00
018700
010700
010780
030380
030380
07ffc0
0601c0
0401c0
0c01e0
0c00e0
0c00e0
1800f0
180070
380078
ff03fe
001800
003000
002000
006000
006000
007200
001c00
ENDCHAR
STARTCHAR breve
ENCODING 162
SWIDTH 400 0
DWIDTH 13 0
BBX 9 5 2 19
BITMAP
8080
8080
4100
7f00
3e00
ENDCHAR
STARTCHAR Lstroke
ENCODING 163
SWIDTH 574 0
DWIDTH 19 0
BBX 18 24 1 0
BITMAP
7fc000
0e0000
0e0000
0e0000
0e0000
0e0000
0e0000
0e2000
0e6000
0ec000
0f8000
0f0000
0e0000
1e0000
6e0000
4e0000
8e0000
0e0000
0e0040
0e0040
0e0040
0e00c0
0f03c0
7fffc0
ENDCHAR
STARTCHAR currency
ENCODING 164
SWIDTH 530 0
DWIDTH 18 0
BBX 16 16 1 4
BITMAP
4002
e3c7
6ff6
3c3c
300c
300c
6006
6006
6006
6006
6006
300c
300c
3c3c
6ff6
e3c7
ENDCHAR
STARTCHAR Lcaron
ENCODING 165
SWIDTH 568 0
DWIDTH 19 0
BBX 17 27 1 0
BITMAP
001c00
001c00
001e00
ff8e00
1c0c00
1c0c00
1c0800
1c1000
1c2000
1c0000
1c0000
1c0000
1c0000
1c0000
1c0000
1c0000
1c0000
1c0000
1c0000
1c0000
1c0000
1c0080
1c0080
1c0080
1c0180
1e0780
ffff80
ENDCHAR
STARTCHAR Sacute
ENCODING 166
SWIDTH 541 0
DWIDTH 18 0
BBX 15 31 2 0
BITMAP
0010
0038
0070
00e0
0180
0200
0000
0fe0
3838
7018
6018
e018
e008
e000
f000
7800
7e00
3fc0
0ff0
03f8
00fc
007c
001e
000e
800e
c00e
c00e
e00c
f018
7830
1fc0
ENDCHAR
STARTCHAR section
ENCODING 167
SWIDTH 554 0
DWIDTH 18 0
BBX 16 28 1 -4
BITMAP
01f0
0638
041c
0c08
0c00
1e00
3700
67c0
43e0
41f0
c07c
c03e
e01e
700f
7c07
3e07
1f03
07c2
03e2
00f2
007c
003c
0038
0018
1818
3c10
1e30
07c0
ENDCHAR
STARTCHAR diaeresis
ENCODING 168
SWIDTH 400 0
DWIDTH 13 0
BBX 11 4 1 19
BITMAP
60c0
f1e0
f1e0
60c0
ENDCHAR
STARTCHAR Scaron
ENCODING 169
SWIDTH 541 0
DWIDTH 18 0
BBX 15 32 2 0
BITMAP
2010
3030
1860
0cc0
0780
0780
0300
0000
0fe0
3838
7018
6018
e018
e008
e000
f000
7800
7e00
3fc0
0ff0
03f8
00fc
007c
001e
000e
800e
c00e
c00e
e00c
f018
7830
1fc0
ENDCHAR
STARTCHAR Scedilla
ENCODING 170
SWIDTH 541 0
DWIDTH 18 0
BBX 15 32 2 -8
BITMAP
0fe0
3838
7018
6018
e018
e008
e000
f000
7800
7e00
3fc0
0ff0
03f8
00fc
007c
001e
000e
800e
c00e
c00e
e00c
f018
7830
1fc0
0180
0100
03c0
01e0
00e0
00e0
01c0
0780
ENDCHAR
STARTCHAR Tcaron
ENCODING 171
SWIDTH 621 0
DWIDTH 21 0
BBX 19 32 1 0
BITMAP
040200
060600
030c00
019800
00f000
00f000
006000
000000
ffffe0
e0e0e0
c0e060
80e020
80e020
80e020
00e000
00e000
00e000
00e000
00e000
00e000
00e000
00e000
00e000
00e000
00e000
00e000
00e000
00e000
00e000
00e000
00e000
0ffe00
ENDCHAR
STARTCHAR Zacute
ENCODING 172
SWIDTH 610 0
DWIDTH 20 0
BBX 19 31 0 0
BITMAP
000100
000380
000700
000e00
001800
002000
000000
3fffe0
3803e0
3003c0
200780
200f80
200f00
001e00
003e00
003c00
007800
007800
00f000
01e000
01e000
03c000
078000
078000
0f0000
1e0020
1e0020
3c0020
780060
7801e0
ffffe0
ENDCHAR
STARTCHAR hyphen
ENCODING 173
SWIDTH 392 0
DWIDTH 13 0
BBX 8 2 3 7
BITMAP
ff
ff
ENDCHAR
STARTCHAR Zcaron
ENCODING 174
SWIDTH 610 0
DWIDTH 20 0
BBX 19 32 0 0
BITMAP
020100
030300
018600
00cc00
007800
007800
003000
000000
3fffe0
3803e0
3003c0
200780
200f80
200f00
001e00
003e00
003c00
007800
007800
00f000
01e000
01e000
03c000
078000
078000
0f0000
1e0020
1e0020
3c0020
780060
7801e0
ffffe0
ENDCHAR
STARTCHAR Zabovedot
ENCODING 175
SWIDTH 610 0
DWIDTH 20 0
BBX 19 29 0 0
BITMAP
003000
007800
007800
003000
000000
3fffe0
3803e0
3003c0
200780
200f80
200f00
001e00
003e00
003c00
007800
007800
00f000
01e000
01e000
03c000
078000
078000
0f0000
1e0020
1e0020
3c0020
780060
7801e0
ffffe0
ENDCHAR
STARTCHAR degree
ENCODING 176
SWIDTH 350 0
DWIDTH 12 0
BBX 10 10 1 13
BITMAP
1e00
3f00
6180
e1c0
c0c0
c0c0
e1c0
6180
3f00
1e00
ENDCHAR
STARTCHAR aogonek
ENCODING 177
SWIDTH 523 0
DWIDTH 17 0
BBX 15 24 2 -7
BITMAP
07c0
38e0
f0f0
e070
6070
0070
01f0
0770
3c70
7070
e070
e070
e070
e070
70f0
7f7e
3c38
0180
0300
0200
0600
0600
0720
01c0
ENDCHAR
STARTCHAR ogonek
ENCODING 178
SWIDTH 400 0
DWIDTH 13 0
BBX 6 7 4 -8
BITMAP
30
60
40
c0
c0
e4
38
ENDCHAR
STARTCHAR lstroke
ENCODING 179
SWIDTH 294 0
DWIDTH 10 0
BBX 10 25 0 0
BITMAP
0c00
7c00
1c00
1c00
1c00
1c00
1c00
1c40
1c80
1d80
1f00
1c00
1c00
3c00
7c00
9c00
9c00
1c00
1c00
1c00
1c00
1c00
1c00
1c00
7f00
ENDCHAR
STARTCHAR acute
ENCODING 180
SWIDTH 400 0
DWIDTH 13 0
BBX 7 6 5 18
BITMAP
04
0e
1c
38
60
80
ENDCHAR
STARTCHAR lcaron
ENCODING 181
SWIDTH 390 0
DWIDTH 13 0
BBX 11 28 1 0
BITMAP
01c0
01c0
01e0
18e0
f8c0
38c0
3880
3900
3a00
3800
3800
3800
3800
3800
3800
3800
3800
3800
3800
3800
3800
3800
3800
3800
3800
3800
3800
fe00
ENDCHAR
STARTCHAR sacute
ENCODING 182
SWIDTH 436 0
DWIDTH 15 0
BBX 12 24 2 0
BITMAP
0020
0070
00e0
01c0
0300
0400
0000
1f00
31c0
60c0
e040
e040
f000
7800
7e00
1f80
07c0
01e0
80e0
80e0
c0e0
c0c0
e180
3f00
ENDCHAR
STARTCHAR caron
ENCODING 183
SWIDTH 400 0
DWIDTH 13 0
BBX 10 7 2 18
BITMAP
8040
c0c0
6180
3300
1e00
1e00
0c00
ENDCHAR
STARTCHAR cedilla
ENCODING 184
SWIDTH 400 0
DWIDTH 13 0
BBX 6 8 5 -8
BITMAP
30
20
78
3c
1c
1c
38
f0
ENDCHAR
STARTCHAR scaron
ENCODING 185
SWIDTH 436 0
DWIDTH 15 0
BBX 11 25 2 0
BITMAP
4020
6060
30c0
1980
0f00
0f00
0600
0000
1f00
31c0
60c0
e040
e040
f000
7800
7e00
1f80
07c0
01e0
80e0
80e0
c0e0
c0c0
e180
3f00
ENDCHAR
STARTCHAR scedilla
ENCODING 186
SWIDTH 436 0
DWIDTH 15 0
BBX 11 25 2 -8
BITMAP
1f00
31c0
60c0
e040
e040
f000
7800
7e00
1f80
07c0
01e0
80e0
80e0
c0e0
c0c0
e180
3f00
0600
0400
0f00
0780
0380
0380
0700
1e00
ENDCHAR
STARTCHAR tcaron
ENCODING 187
SWIDTH 360 0
DWIDTH 12 0
BBX 11 27 2 0
BITMAP
01c0
01c0
01e0
00e0
00c0
00c0
0880
1900
1a00
3800
ff80
3800
3800
3800
3800
3800
3800
3800
3800
3800
3800
3800
3800
3800
3c00
1fc0
0e00
ENDCHAR
STARTCHAR zacute
ENCODING 188
SWIDTH 480 0
DWIDTH 16 0
BBX 14 24 1 0
BITMAP
0008
001c
0038
0070
00c0
0100
0000
7ffc
703c
6078
40f0
40f0
01e0
03c0
0380
0780
0f00
0e00
1e00
3c04
3804
780c
f03c
fffc
ENDCHAR
STARTCHAR doubleacute
ENCODING 189
SWIDTH 400 0
DWIDTH 13 0
BBX 9 7 4 18
BITMAP
3100
3380
7300
6700
6600
c400
8400
ENDCHAR
STARTCHAR zcaron
ENCODING 190
SWIDTH 480 0
DWIDTH 16 0
BBX 14 25 1 0
BITMAP
1008
1818
0c30
0660
03c0
03c0
0180
0000
7ffc
703c
6078
40f0
40f0
01e0
03c0
0380
0780
0f00
0e00
1e00
3c04
3804
780c
f03c
fffc
ENDCHAR
STARTCHAR zabovedot
ENCODING 191
SWIDTH 480 0
DWIDTH 16 0
BBX 14 22 1 0
BITMAP
0180
03c0
03c0
0180
0000
7ffc
703c
6078
40f0
40f0
01e0
03c0
0380
0780
0f00
0e00
1e00
3c04
3804
780c
f03c
fffc
ENDCHAR
STARTCHAR Racute
ENCODING 192
SWIDTH 644 0
DWIDTH 21 0
BBX 20 31 1 0
BITMAP
000400
000e00
001c00
003800
006000
008000
000000
fffc00
1c1f00
1c0780
1c0380
1c03c0
1c03c0
1c03c0
1c03c0
1c0380
1c0780
1c0700
1c1e00
1ff000
1c1e00
1c0f00
1c0700
1c0700
1c0780
1c0780
1c0780
1c0380
1c03c0
1c01e0
ff80f0
ENDCHAR
STARTCHAR Aacute
ENCODING 193
SWIDTH 635 0
DWIDTH 21 0
BBX 23 30 -1 0
BITMAP
000200
000f00
001f00
007800
00c000
000000
003800
003800
003c00
007c00
005c00
004e00
00ce00
008e00
008700
018700
018700
010780
030380
030380
03ffc0
0601c0
0601c0
0c00e0
0c00e0
0c00e0
180070
180070
380078
ff03fe
ENDCHAR
STARTCHAR Acircumflex
ENCODING 194
SWIDTH 635 0
DWIDTH 21 0
BBX 23 29 -1 0
BITMAP
001000
003c00
007e00
01c300
010080
003800
003800
003c00
005c00
005c00
004e00
00ce00
008e00
008f00
018700
010700
010780
030380
030380
07ffc0
0601c0
0401c0
0c01e0
0c00e0
0c00e0
1800f0
180070
380078
ff03fe
ENDCHAR
STARTCHAR Abreve
ENCODING 195
SWIDTH 635 0
DWIDTH 21 0
BBX 23 30 -1 0
BITMAP
010100
010100
008200
00fe00
007c00
000000
003800
003800
003c00
005c00
005c00
004e00
00ce00
008e00
008f00
018700
010700
010780
030380
030380
07ffc0
0601c0
0401c0
0c01e0
0c00e0
0c00e0
1800f0
180070
380078
ff03fe
ENDCHAR
STARTCHAR Adiaeresis
ENCODING 196
SWIDTH 635 0
DWIDTH 21 0
BBX 23 28 -1 0
BITMAP
018300
03c780
03c780
018300
003800
003800
007c00
005c00
005c00
00de00
008e00
008e00
018f00
010700
010700
030780
030380
020380
07ffc0
0601c0
0401e0
0c01e0
0c00e0
0800f0
180070
180070
380078
fe03fe
ENDCHAR
STARTCHAR Lacute
ENCODING 197
SWIDTH 568 0
DWIDTH 19 0
BBX 17 31 1 0
BITMAP
004000
00e000
01c000
038000
060000
080000
000000
ff8000
1c0000
1c0000
1c0000
1c0000
1c0000
1c0000
1c0000
1c0000
1c0000
1c0000
1c0000
1c0000
1c0000
1c0000
1c0000
1c0000
1c0000
1c0080
1c0080
1c0080
1c0180
1e0780
ffff80
ENDCHAR
STARTCHAR Cacute
ENCODING 198
SWIDTH 684 0
DWIDTH 23 0
BBX 20 31 1 0
BITMAP
000080
0001c0
000380
000700
000c00
001000
000000
007f00
03c1f0
0f0070
1e0030
3c0030
380010
780000
780000
700000
700000
f00000
f00000
f00000
f00000
f00000
700000
780000
780010
380010
3c0010
1e0030
0f0070
03c1f0
00ff80
ENDCHAR
STARTCHAR Ccedilla
ENCODING 199
SWIDTH 680 0
DWIDTH 23 0
BBX 20 32 1 -8
BITMAP
007f00
03c1f0
0f0070
1e0030
3c0030
380010
780000
780000
700000
700000
f00000
f00000
f00000
f00000
f00000
700000
780000
780010
380010
3c0010
1e0030
0f0070
07c1f0
00ff80
001000
003000
003800
001e00
000e00
000e00
001c00
007800
ENDCHAR
STARTCHAR Ccaron
ENCODING 200
SWIDTH 684 0
DWIDTH 23 0
BBX 20 32 1 0
BITMAP
010080
018180
00c300
006600
003c00
003c00
001800
000000
007f00
03c1f0
0f0070
1e0030
3c0030
380010
780000
780000
700000
700000
f00000
f00000
f00000
f00000
f00000
700000
780000
780010
380010
3c0010
1e0030
0f0070
03c1f0
00ff80
ENDCHAR
STARTCHAR Eacute
ENCODING 201
SWIDTH 606 0
DWIDTH 20 0
BBX 18 30 1 0
BITMAP
000800
003c00
007c00
01e000
030000
000000
ffff80
1c0380
1c0180
1c0080
1c0080
1c0000
1c0000
1c0000
1c0200
1c0200
1c0600
1ffe00
1c0600
1c0200
1c0200
1c0000
1c0000
1c0000
1c0040
1c00c0
1c00c0
1c01c0
1e0380
ffff80
ENDCHAR
STARTCHAR Eogonek
ENCODING 202
SWIDTH 606 0
DWIDTH 20 0
BBX 18 31 1 -7
BITMAP
ffff80
1c0380
1c0180
1c0080
1c0080
1c0000
1c0000
1c0000
1c0200
1c0200
1c0600
1ffe00
1c0600
1c0200
1c0200
1c0000
1c0000
1c0000
1c0040
1c00c0
1c00c0
1c01c0
1e0380
ffff80
00c000
018000
010000
030000
030000
039000
00e000
ENDCHAR
STARTCHAR Ediaeresis
ENCODING 203
SWIDTH 606 0
DWIDTH 20 0
BBX 18 28 1 0
BITMAP
060c00
0f1e00
0f1e00
060c00
ffff80
1c0380
1c0180
1c0080
1c0080
1c0000
1c0000
1c0000
1c0200
1c0200
1c0600
1ffe00
1c0600
1c0200
1c0200
1c0000
1c0000
1c0000
1c0040
1c00c0
1c00c0
1c01c0
1e0380
ffff80
ENDCHAR
STARTCHAR Ecaron
ENCODING 204
SWIDTH 606 0
DWIDTH 20 0
BBX 18 32 1 0
BITMAP
080400
0c0c00
061800
033000
01e000
01e000
00c000
000000
ffff80
1c0380
1c0180
1c0080
1c0080
1c0000
1c0000
1c0000
1c0200
1c0200
1c0600
1ffe00
1c0600
1c0200
1c0200
1c0000
1c0000
1c0000
1c0040
1c00c0
1c00c0
1c01c0
1e0380
ffff80
ENDCHAR
STARTCHAR Iacute
ENCODING 205
SWIDTH 349 0
DWIDTH 12 0
BBX 10 30 1 0
BITMAP
0080
03c0
0f80
1e00
3000
0000
ff80
1c00
1c00
1c00
1c00
1c00
1c00
1c00
1c00
1c00
1c00
1c00
1c00
1c00
1c00
1c00
1c00
1c00
1c00
1c00
1c00
1c00
1c00
ff80
ENDCHAR
STARTCHAR Icircumflex
ENCODING 206
SWIDTH 349 0
DWIDTH 12 0
BBX 9 29 1 0
BITMAP
0800
1c00
3f00
e380
8080
ff80
1c00
1c00
1c00
1c00
1c00
1c00
1c00
1c00
1c00
1c00
1c00
1c00
1c00
1c00
1c00
1c00
1c00
1c00
1c00
1c00
1c00
1c00
ff80
ENDCHAR
STARTCHAR Dcaron
ENCODING 207
SWIDTH 779 0
DWIDTH 26 0
BBX 24 32 1 0
BITMAP
040200
060600
030c00
019800
00f000
00f000
006000
000000
ffff00
1c07e0
1c00f0
1c0078
1c003c
1c001c
1c001e
1c000e
1c000e
1c000f
1c000f
1c000f
1c000f
1c000f
1c000f
1c000e
1c001e
1c001e
1c001c
1c003c
1c0078
1c00f0
1e03c0
ffff00
ENDCHAR
STARTCHAR Dstroke
ENCODING 208
SWIDTH 785 0
DWIDTH 26 0
BBX 24 24 1 0
BITMAP
7fff00
0e03e0
0e00f0
0e0078
0e003c
0e001c
0e001e
0e000e
0e000e
0e000f
0e000f
fff00f
0e000f
0e000f
0e000f
0e000e
0e001e
0e001e
0e001c
0e003c
0e0078
0e00f0
0f03c0
7fff00
ENDCHAR
STARTCHAR Nacute
ENCODING 209
SWIDTH 780 0
DWIDTH 26 0
BBX 24 31 1 0
BITMAP
000080
0001c0
000380
000700
000c00
001000
000000
fe00ff
1f003c
1f0018
1f8018
1bc018
1bc018
19e018
18e018
18f018
187818
183818
183c18
181e18
180e18
180f18
180798
180398
1803d8
1801f8
1800f8
1800f8
180078
3c0038
ff0038
ENDCHAR
STARTCHAR Ncaron
ENCODING 210
SWIDTH 780 0
DWIDTH 26 0
BBX 24 32 1 0
BITMAP
010080
018180
00c300
006600
003c00
003c00
001800
000000
fe00ff
1f003c
1f0018
1f8018
1bc018
1bc018
19e018
18e018
18f018
187818
183818
183c18
181e18
180e18
180f18
180798
180398
1803d8
1801f8
1800f8
1800f8
180078
3c0038
ff0038
ENDCHAR
STARTCHAR Oacute
ENCODING 211
SWIDTH 762 0
DWIDTH 25 0
BBX 23 30 1 0
BITMAP
000200
000f00
001f00
007800
00c000
000000
00fe00
0783c0
0e00e0
1c0070
380038
380038
78003c
70001c
70001c
f0001e
f0001e
f0001e
f0001e
f0001e
f0001e
70001c
70001c
78003c
380038
380038
1c0070
0e00e0
0783c0
00fe00
ENDCHAR
STARTCHAR Ocircumflex
ENCODING 212
SWIDTH 762 0
DWIDTH 25 0
BBX 23 29 1 0
BITMAP
001000
003800
00fe00
01c700
020080
00fe00
0783c0
0e00e0
1c0070
380038
380038
78003c
70001c
70001c
f0001e
f0001e
f0001e
f0001e
f0001e
f0001e
70001c
70001c
78003c
380038
380038
1c0070
0e00e0
0783c0
00fe00
ENDCHAR
STARTCHAR Odoubleacute
ENCODING 213
SWIDTH 762 0
DWIDTH 25 0
BBX 23 32 1 0
BITMAP
001880
0019c0
003980
003380
003300
006200
004200
000000
00fe00
0783c0
0e00e0
1c0070
380038
380038
78003c
70001c
70001c
f0001e
f0001e
f0001e
f0001e
f0001e
f0001e
70001c
70001c
78003c
380038
380038
1c0070
0e00e0
0783c0
00fe00
ENDCHAR
STARTCHAR Odiaeresis
ENCODING 214
SWIDTH 762 0
DWIDTH 25 0
BBX 23 28 1 0
BITMAP
018300
03c780
03c780
018300
00fe00
0783c0
0e00e0
1c0070
380038
380038
78003c
70001c
70001c
f0001e
f0001e
f0001e
f0001e
f0001e
f0001e
70001c
70001c
78003c
380038
380038
1c0070
0e00e0
0783c0
00fe00
ENDCHAR
STARTCHAR multiply
ENCODING 215
SWIDTH 570 0
DWIDTH 19 0
BBX 15 15 2 1
BITMAP
4004
e00e
701c
3838
1c70
0ee0
07c0
0380
07c0
0ee0
1c70
3838
701c
e00e
4004
ENDCHAR
STARTCHAR Rcaron
ENCODING 216
SWIDTH 644 0
DWIDTH 21 0
BBX 20 32 1 0
BITMAP
080400
0c0c00
061800
033000
01e000
01e000
00c000
000000
fffc00
1c1f00
1c0780
1c0380
1c03c0
1c03c0
1c03c0
1c03c0
1c0380
1c0780
1c0700
1c1e00
1ff000
1c1e00
1c0f00
1c0700
1c0700
1c0780
1c0780
1c0780
1c0380
1c03c0
1c01e0
ff80f0
ENDCHAR
STARTCHAR Uring
ENCODING 217
SWIDTH 791 0
DWIDTH 26 0
BBX 24 32 1 0
BITMAP
003800
004400
00c600
00c600
00c600
004400
003800
000000
ff81ff
1c0038
1c0038
1c0038
1c0038
1c0038
1c0038
1c0038
1c0038
1c0038
1c0038
1c0038
1c0038
1c0038
1c0038
1c0038
1c0038
1c0038
0c0030
0e0070
0e0070
0700e0
0381c0
007e00
ENDCHAR
STARTCHAR Uacute
ENCODING 218
SWIDTH 791 0
DWIDTH 26 0
BBX 24 30 1 0
BITMAP
000100
000780
000f80
003c00
006000
000000
ff81ff
1c0038
1c0038
1c0038
1c0038
1c0038
1c0038
1c0038
1c0038
1c0038
1c0038
1c0038
1c0038
1c0038
1c0038
1c0038
1c0038
1c0038
0c0030
0e0070
0e0070
0700e0
0381c0
007e00
ENDCHAR
STARTCHAR Udoubleacute
ENCODING 219
SWIDTH 791 0
DWIDTH 26 0
BBX 24 32 1 0
BITMAP
001880
0019c0
003980
003380
003300
006200
004200
000000
ff81ff
1c0038
1c0038
1c0038
1c0038
1c0038
1c0038
1c0038
1c0038
1c0038
1c0038
1c0038
1c0038
1c0038
1c0038
1c0038
1c0038
1c0038
0c0030
0e0070
0e0070
0700e0
0381c0
007e00
ENDCHAR
STARTCHAR Udiaeresis
ENCODING 220
SWIDTH 791 0
DWIDTH 26 0
BBX 24 28 1 0
BITMAP
00c180
01e3c0
01e3c0
00c180
ffc1ff
1c0038
1c0038
1c0038
1c0038
1c0038
1c0038
1c0038
1c0038
1c0038
1c0038
1c0038
1c0038
1c0038
1c0038
1c0038
1c0038
1c0038
0c0030
0e0070
0e0070
0700e0
0381c0
007e00
ENDCHAR
STARTCHAR Yacute
ENCODING 221
SWIDTH 588 0
DWIDTH 20 0
BBX 21 30 0 0
BITMAP
000100
000780
001f00
003c00
006000
000000
ff83f8
3c00e0
1c00c0
1e0180
0e0180
0f0300
070300
078200
038600
03c400
01cc00
01e800
00f800
00f000
007000
007000
007000
007000
007000
007000
007000
007000
007000
07fe00
ENDCHAR
STARTCHAR Tcedilla
ENCODING 222
SWIDTH 621 0
DWIDTH 21 0
BBX 19 32 1 -8
BITMAP
ffffe0
e0e0e0
c0e060
80e020
80e020
80e020
00e000
00e000
00e000
00e000
00e000
00e000
00e000
00e000
00e000
00e000
00e000
00e000
00e000
00e000
00e000
00e000
00e000
0ffe00
006000
004000
00f000
007800
003800
003800
007000
01e000
ENDCHAR
STARTCHAR ssharp
ENCODING 223
SWIDTH 601 0
DWIDTH 20 0
BBX 18 25 1 0
BITMAP
03f000
070c00
0e0e00
1c0700
1c0700
380700
380600
380e00
381c00
383800
383000
387000
387000
383800
383c00
381e00
380f00
380780
380380
380180
3801c0
3801c0
386180
387380
fe1c00
ENDCHAR
STARTCHAR racute
ENCODING 224
SWIDTH 389 0
DWIDTH 13 0
BBX 12 24 2 0
BITMAP
0020
0070
00e0
01c0
0300
0400
0000
38c0
f9e0
3fe0
3c40
3800
3800
3800
3800
3800
3800
3800
3800
3800
3800
3800
3800
ff00
ENDCHAR
STARTCHAR aacute
ENCODING 225
SWIDTH 523 0
DWIDTH 17 0
BBX 15 25 2 0
BITMAP
0020
0060
01e0
01c0
0300
0c00
0000
0000
07c0
38e0
f0f0
e070
6070
0070
01f0
0770
3c70
7070
e070
e070
e070
e070
70f0
7f7e
3c38
ENDCHAR
STARTCHAR acircumflex
ENCODING 226
SWIDTH 523 0
DWIDTH 17 0
BBX 15 24 2 0
BITMAP
0200
0700
0f80
18c0
3060
2020
0000
07c0
38e0
f0f0
e070
6070
0070
00f0
0770
1c70
7070
e070
e070
e070
e070
70f0
7f7e
3c38
ENDCHAR
STARTCHAR abreve
ENCODING 227
SWIDTH 523 0
DWIDTH 17 0
BBX 15 23 2 0
BITMAP
4040
4040
2080
3f80
1f00
0000
07c0
38e0
f0f0
e070
6070
0070
01f0
0770
3c70
7070
e070
e070
e070
e070
70f0
7f7e
3c38
ENDCHAR
STARTCHAR adiaeresis
ENCODING 228
SWIDTH 523 0
DWIDTH 17 0
BBX 15 23 2 0
BITMAP
3060
78f0
78f0
3060
0000
0000
07c0
38e0
f0f0
e070
6070
0070
01f0
0770
3c70
7070
e070
e070
e070
e070
70f0
7f7e
3c38
ENDCHAR
STARTCHAR lacute
ENCODING 229
SWIDTH 279 0
DWIDTH 9 0
BBX 9 32 1 0
BITMAP
0100
0380
0700
0e00
1800
2000
0000
1800
f800
3800
3800
3800
3800
3800
3800
3800
3800
3800
3800
3800
3800
3800
3800
3800
3800
3800
3800
3800
3800
3800
3800
fe00
ENDCHAR
STARTCHAR cacute
ENCODING 230
SWIDTH 496 0
DWIDTH 17 0
BBX 14 24 2 0
BITMAP
0008
001c
0038
0070
00c0
0100
0000
07c0
1870
3038
7038
6010
e000
e000
e000
e000
e000
e000
f000
700c
7818
3c30
1fe0
0700
ENDCHAR
STARTCHAR ccedilla
ENCODING 231
SWIDTH 496 0
DWIDTH 17 0
BBX 13 25 2 -8
BITMAP
0780
18f0
3078
7038
6010
e000
e000
e000
e000
e000
e000
f000
7008
7018
3830
1fe0
0780
0200
0200
0700
03c0
01c0
01c0
0380
0f00
ENDCHAR
STARTCHAR ccaron
ENCODING 232
SWIDTH 496 0
DWIDTH 17 0
BBX 14 25 2 0
BITMAP
1008
1818
0c30
0660
03c0
03c0
0180
0000
07c0
1870
3038
7038
6010
e000
e000
e000
e000
e000
e000
f000
700c
7818
3c30
1fe0
0700
ENDCHAR
STARTCHAR eacute
ENCODING 233
SWIDTH 514 0
DWIDTH 17 0
BBX 14 24 2 0
BITMAP
0030
0070
01e0
03c0
0700
0400
0000
0780
1c70
3038
7018
601c
e01c
e01c
fffc
e000
e000
e000
e000
700c
7808
3c38
1ff0
07c0
ENDCHAR
STARTCHAR eogonek
ENCODING 234
SWIDTH 514 0
DWIDTH 17 0
BBX 14 24 2 -7
BITMAP
0780
1c70
3038
7018
601c
e01c
e01c
fffc
e000
e000
e000
e000
700c
7808
3c38
1ff0
07c0
0300
0600
0400
0c00
0c00
0e40
0380
ENDCHAR
STARTCHAR ediaeresis
ENCODING 235
SWIDTH 514 0
DWIDTH 17 0
BBX 14 23 2 0
BITMAP
3060
78f0
78f0
3060
0000
0000
0780
1c70
3038
7018
601c
e01c
e01c
fffc
e000
e000
e000
e000
700c
7808
3c38
1ff0
07c0
ENDCHAR
STARTCHAR ecaron
ENCODING 236
SWIDTH 514 0
DWIDTH 17 0
BBX 14 25 2 0
BITMAP
1008
1818
0c30
0660
03c0
03c0
0180
0000
0780
1c70
3038
7018
601c
e01c
e01c
fffc
e000
e000
e000
e000
700c
7808
3c38
1ff0
07c0
ENDCHAR
STARTCHAR iacute
ENCODING 237
SWIDTH 291 0
DWIDTH 10 0
BBX 7 24 2 0
BITMAP
06
0e
1c
38
60
80
00
38
f8
38
38
38
38
38
38
38
38
38
38
38
38
38
38
fe
ENDCHAR
STARTCHAR icircumflex
ENCODING 238
SWIDTH 291 0
DWIDTH 10 0
BBX 10 24 0 0
BITMAP
0400
0e00
1f00
3380
60c0
c040
0000
0e00
3e00
0e00
0e00
0e00
0e00
0e00
0e00
0e00
0e00
0e00
0e00
0e00
0e00
0e00
0e00
3f80
ENDCHAR
STARTCHAR dcaron
ENCODING 239
SWIDTH 720 0
DWIDTH 24 0
BBX 21 28 2 0
BITMAP
000070
000070
000078
000638
003e30
000e30
000e20
000e40
000e80
000e00
000e00
07ce00
1c3e00
381e00
700e00
700e00
e00e00
e00e00
e00e00
e00e00
e00e00
e00e00
e00e00
700e00
781e00
3c3e00
1fee00
070f80
ENDCHAR
STARTCHAR dstroke
ENCODING 240
SWIDTH 630 0
DWIDTH 21 0
BBX 18 25 2 0
BITMAP
000600
003e00
000e00
000e00
007fc0
007fc0
000e00
000e00
07ce00
1c3e00
381e00
700e00
700e00
e00e00
e00e00
e00e00
e00e00
e00e00
e00e00
e00e00
700e00
781e00
3c3e00
1fee00
070f80
ENDCHAR
STARTCHAR nacute
ENCODING 241
SWIDTH 619 0
DWIDTH 21 0
BBX 18 24 2 0
BITMAP
000800
001c00
003800
007000
00c000
010000
000000
387800
f9fe00
3e1e00
3c0f00
380700
380700
380700
380700
380700
380700
380700
380700
380700
380700
380700
380700
fe3fc0
ENDCHAR
STARTCHAR ncaron
ENCODING 242
SWIDTH 619 0
DWIDTH 21 0
BBX 18 25 2 0
BITMAP
100800
181800
0c3000
066000
03c000
03c000
018000
000000
387800
f9fe00
3e1e00
3c0f00
380700
380700
380700
380700
380700
380700
380700
380700
380700
380700
380700
380700
fe3fc0
ENDCHAR
STARTCHAR oacute
ENCODING 243
SWIDTH 577 0
DWIDTH 19 0
BBX 15 24 2 0
BITMAP
0030
00f0
01e0
0380
0700
0400
0000
07c0
1830
3018
701c
701c
e00e
e00e
e00e
e00e
e00e
e00e
e00e
701c
701c
3018
1830
07c0
ENDCHAR
STARTCHAR ocircumflex
ENCODING 244
SWIDTH 577 0
DWIDTH 19 0
BBX 15 24 2 0
BITMAP
0100
0380
07c0
0c60
1830
3018
0000
07c0
1830
3018
701c
701c
e00e
e00e
e00e
e00e
e00e
e00e
e00e
701c
701c
3018
1830
07c0
ENDCHAR
STARTCHAR odoubleacute
ENCODING 245
SWIDTH 577 0
DWIDTH 19 0
BBX 15 25 2 0
BITMAP
0188
019c
0398
0338
0330
0620
0420
0000
07c0
1830
3018
701c
701c
e00e
e00e
e00e
e00e
e00e
e00e
e00e
701c
701c
3018
1830
07c0
ENDCHAR
STARTCHAR odiaeresis
ENCODING 246
SWIDTH 577 0
DWIDTH 19 0
BBX 15 23 2 0
BITMAP
1830
3c78
3c78
1830
0000
0000
07c0
1830
3018
701c
701c
e00e
e00e
e00e
e00e
e00e
e00e
e00e
701c
701c
3018
1830
07c0
ENDCHAR
STARTCHAR division
ENCODING 247
SWIDTH 570 0
DWIDTH 19 0
BBX 16 16 1 1
BITMAP
0180
03c0
03c0
0180
0000
0000
0000
ffff
ffff
0000
0000
0000
0180
03c0
03c0
0180
ENDCHAR
STARTCHAR rcaron
ENCODING 248
SWIDTH 389 0
DWIDTH 13 0
BBX 11 25 2 0
BITMAP
4020
6060
30c0
1980
0f00
0f00
0600
0000
38c0
f9e0
3fe0
3c40
3800
3800
3800
3800
3800
3800
3800
3800
3800
3800
3800
3800
ff00
ENDCHAR
STARTCHAR uring
ENCODING 249
SWIDTH 606 0
DWIDTH 20 0
BBX 18 25 1 0
BITMAP
038000
044000
0c6000
0c6000
0c6000
044000
038000
000000
380700
f81f00
380700
380700
380700
380700
380700
380700
380700
380700
380700
380700
380700
3c0f00
1e1f00
1fe700
0707c0
ENDCHAR
STARTCHAR uacute
ENCODING 250
SWIDTH 606 0
DWIDTH 20 0
BBX 18 24 1 0
BITMAP
000c00
003c00
007800
007000
00c000
010000
000000
380700
f81f00
380700
380700
380700
380700
380700
380700
380700
380700
380700
380700
380700
3c0f00
1e1f00
1fe700
0707c0
ENDCHAR
STARTCHAR udoubleacute
ENCODING 251
SWIDTH 606 0
DWIDTH 20 0
BBX 18 25 1 0
BITMAP
018800
019c00
039800
033800
033000
062000
042000
000000
380700
f81f00
380700
380700
380700
380700
380700
380700
380700
380700
380700
380700
380700
3c0f00
1e1f00
1fe700
0707c0
ENDCHAR
STARTCHAR udiaeresis
ENCODING 252
SWIDTH 606 0
DWIDTH 20 0
BBX 18 23 1 0
BITMAP
060c00
0f1e00
0f1e00
060c00
000000
000000
380700
f81f00
380700
380700
380700
380700
380700
380700
380700
380700
380700
380700
380700
3c0f00
1e1f00
1fe700
0707c0
ENDCHAR
STARTCHAR yacute
ENCODING 253
SWIDTH 506 0
DWIDTH 17 0
BBX 17 33 0 -8
BITMAP
000800
001c00
003c00
007000
00e000
018000
000000
000000
ff1f80
3c0600
3c0600
1c0400
1e0c00
0e0c00
0e0800
0f0800
071800
071000
039000
03b000
03a000
01e000
01e000
01e000
00c000
00c000
00c000
008000
008000
110000
390000
3e0000
1c0000
ENDCHAR
STARTCHAR tcedilla
ENCODING 254
SWIDTH 344 0
DWIDTH 11 0
BBX 10 29 2 -8
BITMAP
0800
1800
1800
3800
ff80
3800
3800
3800
3800
3800
3800
3800
3800
3800
3800
3800
3800
3800
3c00
1fc0
0e00
0c00
0800
1e00
0f00
0700
0700
0e00
3c00
ENDCHAR
STARTCHAR abovedot
ENCODING 255
SWIDTH 400 0
DWIDTH 13 0
BBX 4 4 5 19
BITMAP
60
f0
f0
60
ENDCHAR
ENDFONT
